# xmcd
#
# Track frame offsets:
#	180
#	15062
#	41294
#	62555
#	78439
#	95653
#	115538
#	137758
#	152461
#	170348
#	189306
#	207135
#	222493
#	237883
#	255890
#	274208
#	288195
#	305645
#
# Disc length: 4334 seconds
#
# Revision: 0
# Processed by: cddbd v1.5.1PL0 Copyright (c) Steve Scherf et al.
# Submitted via: audiograbber 1.83.01
#
DISCID=e310ec12
DTITLE=Various Artist - HITMIX
DYEAR=1900
DGENRE=Pop
TTITLE0=Ricchi e Poveri - MADE IN ITALY
TTITLE1=Francesco Napoli - BALLA BALLA
TTITLE2=Fiordaliso - I LOVE YOU MAN
TTITLE3=Al Bano and Romina Power - CHE ANGELO SEI
TTITLE4=Mino Reitano - ITALIA
TTITLE5=Enzo Melotti - PIU BELLA COSA
TTITLE6=Bino - BUONA DOMENICA
TTITLE7=Gepy and Gepy - ANGELO BLU
TTITLE8=Andrea Mingardi - TU SEI COME IO VOLEVO
TTITLE9=Pooh - NAPOLI PER NOI
TTITLE10=Angelo Fabiani - CANZONE ITALIANA
TTITLE11=Salvo - SOGNO ROMANTICO
TTITLE12=Meccano - SENZA DI TE
TTITLE13=Dario Baldan Bembo - AMICO E`
TTITLE14=Homo Sapiens - BELLA DA MORIRE
TTITLE15=Edoardo de Angelis and Angelo Branduardi - NOVALIS
TTITLE16=Nino d` Angelo - VAI
TTITLE17=Toto Cutugno - LA MIA MUSICA
EXTD=
EXTT0=
EXTT1=
EXTT2=
EXTT3=
EXTT4=
EXTT5=
EXTT6=
EXTT7=
EXTT8=
EXTT9=
EXTT10=
EXTT11=
EXTT12=
EXTT13=
EXTT14=
EXTT15=
EXTT16=
EXTT17=
PLAYORDER=
